<svg width="109" height="48" viewBox="0 0 109 48" fill="none" xmlns="http://www.w3.org/2000/svg">
<path d="M57.2664 19C57.1775 19 57.0975 18.9689 57.0264 18.9067C56.9642 18.8356 56.9331 18.7556 56.9331 18.6667V10.0022C56.9331 9.9045 56.9642 9.82452 57.0264 9.76231C57.0975 9.7001 57.1775 9.669 57.2664 9.669H60.8921C62.0563 9.669 62.9627 9.9356 63.6114 10.4688C64.269 10.9931 64.5979 11.7396 64.5979 12.7082C64.5979 13.3303 64.4512 13.8591 64.158 14.2945C63.8647 14.73 63.4604 15.0632 62.9449 15.2943L64.7711 18.5734C64.7978 18.6268 64.8111 18.6756 64.8111 18.7201C64.8111 18.7912 64.78 18.8578 64.7178 18.92C64.6645 18.9733 64.6023 19 64.5312 19H62.7583C62.5006 19 62.3184 18.88 62.2118 18.6401L60.6922 15.7075H59.3325V18.6667C59.3325 18.7645 59.297 18.8445 59.2259 18.9067C59.1637 18.9689 59.0837 19 58.9859 19H57.2664ZM60.8655 13.8146C61.2742 13.8146 61.5853 13.7169 61.7986 13.5214C62.0118 13.317 62.1185 13.037 62.1185 12.6816C62.1185 12.3261 62.0118 12.0462 61.7986 11.8418C61.5942 11.6285 61.2831 11.5219 60.8655 11.5219H59.3325V13.8146H60.8655ZM66.4828 19C66.3939 19 66.3139 18.9689 66.2429 18.9067C66.1806 18.8356 66.1495 18.7556 66.1495 18.6667V10.0022C66.1495 9.9045 66.1806 9.82452 66.2429 9.76231C66.3139 9.7001 66.3939 9.669 66.4828 9.669H72.7079C72.8057 9.669 72.8856 9.7001 72.9478 9.76231C73.0101 9.82452 73.0412 9.9045 73.0412 10.0022V11.2553C73.0412 11.3441 73.0101 11.4241 72.9478 11.4952C72.8856 11.5574 72.8057 11.5885 72.7079 11.5885H68.4556V13.3881H72.4146C72.5124 13.3881 72.5924 13.4236 72.6546 13.4947C72.7168 13.5569 72.7479 13.6369 72.7479 13.7346V14.8944C72.7479 14.9832 72.7168 15.0632 72.6546 15.1343C72.5924 15.1965 72.5124 15.2276 72.4146 15.2276H68.4556V17.0805H72.8145C72.9123 17.0805 72.9923 17.1116 73.0545 17.1738C73.1167 17.236 73.1478 17.316 73.1478 17.4137V18.6667C73.1478 18.7556 73.1167 18.8356 73.0545 18.9067C72.9923 18.9689 72.9123 19 72.8145 19H66.4828ZM74.9963 19C74.9074 19 74.8274 18.9689 74.7564 18.9067C74.6941 18.8356 74.663 18.7556 74.663 18.6667V10.0022C74.663 9.9045 74.6941 9.82452 74.7564 9.76231C74.8274 9.7001 74.9074 9.669 74.9963 9.669H76.4093C76.6314 9.669 76.7825 9.75342 76.8625 9.92227L80.115 15.041V10.0022C80.115 9.9045 80.1461 9.82452 80.2083 9.76231C80.2794 9.7001 80.3594 9.669 80.4483 9.669H82.0479C82.1456 9.669 82.2256 9.7001 82.2878 9.76231C82.35 9.82452 82.3811 9.9045 82.3811 10.0022V18.6534C82.3811 18.7512 82.35 18.8356 82.2878 18.9067C82.2256 18.9689 82.1456 19 82.0479 19H80.6216C80.426 19 80.2794 18.9156 80.1817 18.7467L76.9291 13.8146V18.6667C76.9291 18.7556 76.898 18.8356 76.8358 18.9067C76.7736 18.9689 76.6936 19 76.5959 19H74.9963ZM86.63 19C86.5412 19 86.4612 18.9689 86.3901 18.9067C86.3279 18.8356 86.2968 18.7556 86.2968 18.6667V11.7618H83.9241C83.8352 11.7618 83.7552 11.7307 83.6841 11.6685C83.6219 11.5974 83.5908 11.5174 83.5908 11.4286V10.0022C83.5908 9.9045 83.6219 9.82452 83.6841 9.76231C83.7552 9.7001 83.8352 9.669 83.9241 9.669H91.0956C91.1934 9.669 91.2733 9.7001 91.3355 9.76231C91.3977 9.82452 91.4288 9.9045 91.4288 10.0022V11.4286C91.4288 11.5263 91.3977 11.6063 91.3355 11.6685C91.2733 11.7307 91.1934 11.7618 91.0956 11.7618H88.7229V18.6667C88.7229 18.7556 88.6918 18.8356 88.6295 18.9067C88.5673 18.9689 88.4874 19 88.3896 19H86.63ZM91.1568 19C91.0857 19 91.0191 18.9733 90.9569 18.92C90.9036 18.8578 90.8769 18.7912 90.8769 18.7201C90.8769 18.6667 90.8813 18.6268 90.8902 18.6001L94.0228 10.0422C94.0494 9.9356 94.1072 9.84673 94.1961 9.77564C94.2849 9.70455 94.4005 9.669 94.5427 9.669H96.5155C96.6577 9.669 96.7732 9.70455 96.8621 9.77564C96.9509 9.84673 97.0087 9.9356 97.0354 10.0422L100.155 18.6001L100.181 18.7201C100.181 18.7912 100.15 18.8578 100.088 18.92C100.035 18.9733 99.968 19 99.888 19H98.2484C98.0351 19 97.8929 18.9067 97.8218 18.7201L97.302 17.3604H93.7429L93.2363 18.7201C93.1652 18.9067 93.0186 19 92.7964 19H91.1568ZM96.7688 15.4409L95.5291 11.9218L94.2894 15.4409H96.7688ZM101.565 19C101.476 19 101.396 18.9689 101.325 18.9067C101.263 18.8356 101.232 18.7556 101.232 18.6667V10.0022C101.232 9.9045 101.263 9.82452 101.325 9.76231C101.396 9.7001 101.476 9.669 101.565 9.669H103.325C103.422 9.669 103.502 9.7001 103.565 9.76231C103.627 9.82452 103.658 9.9045 103.658 10.0022V16.9872H107.697C107.795 16.9872 107.875 17.0227 107.937 17.0938C107.999 17.156 108.03 17.236 108.03 17.3338V18.6667C108.03 18.7556 107.999 18.8356 107.937 18.9067C107.875 18.9689 107.795 19 107.697 19H101.565ZM60.7588 35.1333C59.488 35.1333 58.4927 34.8267 57.7729 34.2135C57.062 33.5915 56.6843 32.6939 56.6398 31.5209C56.631 31.2809 56.6265 30.8899 56.6265 30.3478C56.6265 29.7969 56.631 29.397 56.6398 29.1481C56.6843 27.9929 57.0708 27.1042 57.7996 26.4821C58.5283 25.8512 59.5147 25.5357 60.7588 25.5357C61.5408 25.5357 62.2429 25.669 62.865 25.9356C63.487 26.1933 63.9758 26.5666 64.3312 27.0553C64.6956 27.5352 64.8822 28.0995 64.8911 28.7482V28.7749C64.8911 28.846 64.86 28.9082 64.7978 28.9615C64.7445 29.0059 64.6823 29.0282 64.6112 29.0282H62.8116C62.6961 29.0282 62.6072 29.0059 62.545 28.9615C62.4828 28.9082 62.4295 28.8149 62.3851 28.6816C62.2607 28.2284 62.0652 27.9129 61.7986 27.7351C61.532 27.5485 61.1809 27.4552 60.7455 27.4552C59.6969 27.4552 59.1548 28.0417 59.1192 29.2148C59.1103 29.4547 59.1059 29.8235 59.1059 30.3212C59.1059 30.8188 59.1103 31.1965 59.1192 31.4542C59.1548 32.6273 59.6969 33.2138 60.7455 33.2138C61.1809 33.2138 61.5364 33.1205 61.8119 32.9338C62.0874 32.7383 62.2784 32.4229 62.3851 31.9874C62.4206 31.8541 62.4695 31.7653 62.5317 31.7208C62.5939 31.6675 62.6872 31.6408 62.8116 31.6408H64.6112C64.6912 31.6408 64.7578 31.6675 64.8111 31.7208C64.8733 31.7741 64.9 31.8408 64.8911 31.9208C64.8822 32.5695 64.6956 33.1382 64.3312 33.627C63.9758 34.1069 63.487 34.4801 62.865 34.7467C62.2429 35.0044 61.5408 35.1333 60.7588 35.1333ZM65.6424 35C65.5713 35 65.5046 34.9733 65.4424 34.92C65.3891 34.8578 65.3625 34.7912 65.3625 34.7201C65.3625 34.6667 65.3669 34.6268 65.3758 34.6001L68.5083 26.0422C68.535 25.9356 68.5928 25.8467 68.6816 25.7756C68.7705 25.7045 68.886 25.669 69.0282 25.669H71.001C71.1432 25.669 71.2588 25.7045 71.3476 25.7756C71.4365 25.8467 71.4943 25.9356 71.5209 26.0422L74.6401 34.6001L74.6668 34.7201C74.6668 34.7912 74.6357 34.8578 74.5735 34.92C74.5202 34.9733 74.4535 35 74.3735 35H72.7339C72.5207 35 72.3785 34.9067 72.3074 34.7201L71.7875 33.3604H68.2284L67.7219 34.7201C67.6508 34.9067 67.5041 35 67.282 35H65.6424ZM71.2543 31.4409L70.0146 27.9218L68.7749 31.4409H71.2543ZM76.0507 35C75.9618 35 75.8819 34.9689 75.8108 34.9067C75.7486 34.8356 75.7175 34.7556 75.7175 34.6667V26.0022C75.7175 25.9045 75.7486 25.8245 75.8108 25.7623C75.8819 25.7001 75.9618 25.669 76.0507 25.669H79.6765C80.8406 25.669 81.7471 25.9356 82.3958 26.4688C83.0534 26.9931 83.3822 27.7396 83.3822 28.7082C83.3822 29.3303 83.2356 29.8591 82.9423 30.2945C82.6491 30.73 82.2447 31.0632 81.7293 31.2943L83.5555 34.5734C83.5822 34.6268 83.5955 34.6756 83.5955 34.7201C83.5955 34.7912 83.5644 34.8578 83.5022 34.92C83.4489 34.9733 83.3867 35 83.3156 35H81.5427C81.285 35 81.1028 34.88 80.9961 34.6401L79.4765 31.7075H78.1169V34.6667C78.1169 34.7645 78.0813 34.8445 78.0102 34.9067C77.948 34.9689 77.868 35 77.7703 35H76.0507ZM79.6498 29.8146C80.0586 29.8146 80.3696 29.7169 80.5829 29.5214C80.7962 29.317 80.9028 29.037 80.9028 28.6816C80.9028 28.3261 80.7962 28.0462 80.5829 27.8418C80.3785 27.6285 80.0675 27.5219 79.6498 27.5219H78.1169V29.8146H79.6498Z" fill="white"/>
<path d="M23.9409 0C10.7191 0 0 10.7191 0 23.9409C0 37.1627 10.7191 47.8818 23.9409 47.8818C37.1627 47.8818 47.8818 37.1627 47.8818 23.9409C47.8818 10.7191 37.1627 0 23.9409 0ZM46.3249 23.9409C46.3249 36.3026 36.304 46.3249 23.9409 46.3249C11.5777 46.3249 1.55683 36.3026 1.55683 23.9409C1.55683 11.5791 11.5791 1.55683 23.9409 1.55683C36.3026 1.55683 46.3249 11.5791 46.3249 23.9409Z" fill="white"/>
<path d="M35.5439 13.7835C35.8691 14.1325 36.3378 14.6956 36.6011 15.0376L41.4489 11.9606C41.2068 11.6439 40.8211 11.1625 40.5326 10.8232L37.4625 12.853L37.2528 13.0332L37.409 12.8052L38.7646 10.0997L37.806 9.1411L35.0991 10.4966L34.8711 10.6529L35.0527 10.4432L37.0839 7.37454C36.7263 7.07049 36.3829 6.79178 35.9451 6.45395L32.868 11.2976C33.258 11.5974 33.7717 12.038 34.0997 12.3378L36.9966 10.8345L37.1824 10.6979L37.0459 10.8837L35.5439 13.7835Z" fill="white"/>
<path d="M24.5434 7.64481L25.868 4.67753L25.9524 4.41431L25.9285 4.68879L26.0679 8.65407C26.5324 8.69771 27.0124 8.76246 27.4853 8.84129L27.27 2.96868C26.6084 2.89548 25.9496 2.8434 25.2909 2.81525L23.986 6.05419L23.9395 6.29489L23.8931 6.05419L22.5896 2.81525C21.9309 2.8434 21.2721 2.89548 20.6105 2.96868L20.3951 8.84129C20.8681 8.76246 21.3481 8.69912 21.8126 8.65407L21.952 4.68879L21.928 4.41431L22.0125 4.67753L23.3371 7.64481H24.5434Z" fill="white"/>
<path d="M13.8299 12.3252C14.5957 11.5186 15.0292 10.5867 14.2635 9.69713C13.8468 9.21431 13.1472 9.10874 12.5673 9.34663L12.5096 9.36915L12.5279 9.31848C12.6137 9.08903 12.6686 8.35707 12.0451 7.85173C11.741 7.6054 11.3595 7.5139 10.9739 7.55331C10.2546 7.62651 9.70136 8.11777 8.1952 9.79707C7.74054 10.3038 7.07896 11.1033 6.68201 11.6213L10.819 15.5458C12.19 14.0284 12.7489 13.4639 13.8299 12.3252ZM8.43168 11.3652C9.265 10.346 10.1504 9.42123 10.5516 9.05525C10.6783 8.93982 10.8162 8.8244 10.9837 8.77936C11.2554 8.70475 11.5355 8.8976 11.5988 9.17631C11.6622 9.45642 11.4862 9.72246 11.2906 9.94205C10.85 10.4389 9.23403 12.1295 9.23403 12.1295L8.43168 11.3652ZM10.0519 12.9023C10.0519 12.9023 11.6256 11.2385 12.1394 10.7064C12.3435 10.4952 12.4744 10.3672 12.6151 10.2982C12.7967 10.2095 12.9952 10.1912 13.1726 10.3094C13.3471 10.4263 13.4273 10.6276 13.3837 10.8274C13.3316 11.0653 13.1374 11.292 12.9769 11.4651C12.7601 11.6974 10.8936 13.6948 10.8908 13.6976L10.0519 12.9023Z" fill="white"/>
<path d="M38.1382 23.9409H23.9409V9.74358C31.787 9.74358 38.1382 16.0948 38.1382 23.9409Z" fill="white"/>
<path d="M23.9408 23.9409V38.1382C16.0947 38.1382 9.74353 31.787 9.74353 23.9409H23.9408Z" fill="white"/>
<path d="M23.9408 9.74358V23.9409H9.74353C9.74353 16.0948 16.0947 9.74358 23.9408 9.74358Z" fill="#0066B1"/>
<path d="M38.1382 23.9409C38.1382 31.787 31.787 38.1382 23.9409 38.1382V23.9409H38.1382Z" fill="#0066B1"/>
</svg>
