<svg width="79" height="32" viewBox="0 0 79 32" fill="none" xmlns="http://www.w3.org/2000/svg">
<path d="M36.0555 13C35.974 13 35.9073 12.9741 35.8555 12.9222C35.8036 12.8704 35.7777 12.8037 35.7777 12.7223V5.50075C35.7777 5.41928 35.8036 5.35262 35.8555 5.30077C35.9073 5.24892 35.974 5.223 36.0555 5.223H39.0774C40.0328 5.223 40.7846 5.4452 41.3327 5.8896C41.8882 6.32659 42.166 6.94875 42.166 7.75608C42.166 8.28195 42.0363 8.72635 41.7771 9.08928C41.5253 9.45221 41.192 9.72625 40.7772 9.91142L42.3104 12.6445C42.3326 12.6889 42.3437 12.7297 42.3437 12.7667C42.3437 12.8259 42.3178 12.8815 42.2659 12.9333C42.2215 12.9778 42.166 13 42.0993 13H40.6328C40.492 13 40.3884 12.9667 40.3217 12.9C40.255 12.8259 40.2069 12.7593 40.1773 12.7L38.9107 10.2558H37.7664V12.7223C37.7664 12.8037 37.7405 12.8704 37.6886 12.9222C37.6368 12.9741 37.5701 13 37.4886 13H36.0555ZM37.7664 8.68932H39.0551C39.4033 8.68932 39.6625 8.60414 39.8329 8.43379C40.0106 8.26344 40.0995 8.03013 40.0995 7.73386C40.0995 7.445 40.0143 7.21169 39.844 7.03393C39.681 6.85617 39.4181 6.76729 39.0551 6.76729H37.7664V8.68932ZM43.737 13C43.6555 13 43.5888 12.9741 43.537 12.9222C43.4851 12.8704 43.4592 12.8037 43.4592 12.7223V5.50075C43.4592 5.41928 43.4851 5.35262 43.537 5.30077C43.5888 5.24892 43.6555 5.223 43.737 5.223H48.9253C49.0068 5.223 49.0735 5.24892 49.1253 5.30077C49.1772 5.35262 49.2031 5.41928 49.2031 5.50075V6.54509C49.2031 6.62656 49.1772 6.69322 49.1253 6.74507C49.0735 6.79692 49.0068 6.82284 48.9253 6.82284H45.3813V8.32269H48.6809C48.7624 8.32269 48.8291 8.35232 48.8809 8.41157C48.9327 8.46342 48.9587 8.53008 48.9587 8.61155V9.57812C48.9587 9.65219 48.9327 9.71885 48.8809 9.7781C48.8291 9.82995 48.7624 9.85587 48.6809 9.85587H45.3813V11.4002H49.0142C49.0957 11.4002 49.1624 11.4261 49.2142 11.4779C49.266 11.5298 49.292 11.5964 49.292 11.6779V12.7223C49.292 12.8037 49.266 12.8704 49.2142 12.9222C49.1624 12.9741 49.0957 13 49.0142 13H43.737ZM50.8326 13C50.7511 13 50.6845 12.9741 50.6326 12.9222C50.5808 12.8704 50.5549 12.8037 50.5549 12.7223V5.50075C50.5549 5.41928 50.5808 5.35262 50.6326 5.30077C50.6845 5.24892 50.7511 5.223 50.8326 5.223H52.0103C52.1362 5.223 52.2251 5.25263 52.2769 5.31188C52.3362 5.36373 52.3732 5.40446 52.388 5.43409L55.0989 9.71144V5.50075C55.0989 5.41928 55.1248 5.35262 55.1766 5.30077C55.2285 5.24892 55.2951 5.223 55.3766 5.223H56.7098C56.7913 5.223 56.8579 5.24892 56.9098 5.30077C56.9616 5.35262 56.9876 5.41928 56.9876 5.50075V12.7223C56.9876 12.7963 56.9616 12.863 56.9098 12.9222C56.8579 12.9741 56.7913 13 56.7098 13H55.521C55.4025 13 55.3137 12.9704 55.2544 12.9111C55.2026 12.8519 55.1692 12.8111 55.1544 12.7889L52.4436 8.67821V12.7223C52.4436 12.8037 52.4176 12.8704 52.3658 12.9222C52.314 12.9741 52.2473 13 52.1658 13H50.8326ZM60.5289 13C60.4474 13 60.3807 12.9741 60.3289 12.9222C60.277 12.8704 60.2511 12.8037 60.2511 12.7223V6.96727H58.2735C58.1921 6.96727 58.1254 6.94135 58.0736 6.8895C58.0217 6.83025 57.9958 6.76359 57.9958 6.68952V5.50075C57.9958 5.41928 58.0217 5.35262 58.0736 5.30077C58.1254 5.24892 58.1921 5.223 58.2735 5.223H64.2507C64.3322 5.223 64.3989 5.24892 64.4507 5.30077C64.5025 5.35262 64.5285 5.41928 64.5285 5.50075V6.68952C64.5285 6.76359 64.5025 6.83025 64.4507 6.8895C64.3989 6.94135 64.3322 6.96727 64.2507 6.96727H62.2731V12.7223C62.2731 12.8037 62.2472 12.8704 62.1954 12.9222C62.1435 12.9741 62.0769 13 61.9954 13H60.5289ZM64.3018 13C64.2425 13 64.187 12.9778 64.1351 12.9333C64.0907 12.8815 64.0684 12.8259 64.0684 12.7667C64.0684 12.7297 64.0721 12.6963 64.0796 12.6667L66.6904 5.53408C66.7126 5.45261 66.7571 5.38224 66.8237 5.32299C66.8978 5.25633 66.9978 5.223 67.1237 5.223H68.768C68.8939 5.223 68.9902 5.25633 69.0568 5.32299C69.1309 5.38224 69.179 5.45261 69.2013 5.53408L71.801 12.6667C71.8158 12.6963 71.8232 12.7297 71.8232 12.7667C71.8232 12.8259 71.7973 12.8815 71.7455 12.9333C71.701 12.9778 71.6455 13 71.5788 13H70.2123C70.1012 13 70.016 12.9741 69.9567 12.9222C69.9049 12.863 69.8716 12.8111 69.8568 12.7667L69.4235 11.6335H66.4571L66.0349 12.7667C66.0201 12.8111 65.9868 12.863 65.9349 12.9222C65.8831 12.9741 65.7942 13 65.6683 13H64.3018ZM66.9126 10.0336H68.9791L67.9347 7.10059L66.9126 10.0336ZM72.9767 13C72.8952 13 72.8285 12.9741 72.7767 12.9222C72.7248 12.8704 72.6989 12.8037 72.6989 12.7223V5.50075C72.6989 5.41928 72.7248 5.35262 72.7767 5.30077C72.8285 5.24892 72.8952 5.223 72.9767 5.223H74.4432C74.5173 5.223 74.5802 5.24892 74.6321 5.30077C74.6913 5.35262 74.7209 5.41928 74.7209 5.50075V11.3224H78.0762C78.1576 11.3224 78.2243 11.352 78.2761 11.4113C78.3354 11.4631 78.365 11.5298 78.365 11.6113V12.7223C78.365 12.8037 78.3354 12.8704 78.2761 12.9222C78.2243 12.9741 78.1576 13 78.0762 13H72.9767ZM38.9663 26.1111C38.2626 26.1111 37.659 25.9963 37.1553 25.7667C36.6591 25.5371 36.2702 25.2001 35.9888 24.7557C35.7147 24.3113 35.5629 23.7595 35.5333 23.1003C35.5259 22.7966 35.5222 22.4707 35.5222 22.1226C35.5222 21.7745 35.5259 21.4412 35.5333 21.1227C35.5629 20.4783 35.7184 19.9339 35.9999 19.4895C36.2814 19.0377 36.6739 18.697 37.1776 18.4674C37.6812 18.2304 38.2774 18.1119 38.9663 18.1119C39.4551 18.1119 39.9069 18.1749 40.3217 18.3008C40.7365 18.4193 41.0994 18.597 41.4105 18.834C41.7216 19.0637 41.9623 19.3451 42.1326 19.6784C42.3104 20.0043 42.403 20.3746 42.4104 20.7894C42.4178 20.8561 42.3956 20.9116 42.3437 20.9561C42.2993 21.0005 42.2437 21.0227 42.1771 21.0227H40.6772C40.5809 21.0227 40.5069 21.0042 40.455 20.9672C40.4032 20.9227 40.3587 20.845 40.3217 20.7339C40.218 20.3413 40.0476 20.0747 39.8106 19.9339C39.581 19.7858 39.2959 19.7117 38.9552 19.7117C38.5478 19.7117 38.2256 19.8265 37.9886 20.0561C37.7516 20.2784 37.622 20.6524 37.5997 21.1783C37.5775 21.7856 37.5775 22.4078 37.5997 23.0447C37.622 23.5706 37.7516 23.9484 37.9886 24.178C38.2256 24.4002 38.5478 24.5113 38.9552 24.5113C39.2959 24.5113 39.5847 24.4372 39.8217 24.2891C40.0588 24.1409 40.2254 23.8743 40.3217 23.4891C40.3513 23.378 40.3921 23.304 40.4439 23.2669C40.5032 23.2225 40.5809 23.2003 40.6772 23.2003H42.1771C42.2437 23.2003 42.2993 23.2225 42.3437 23.2669C42.3956 23.3114 42.4178 23.3669 42.4104 23.4336C42.403 23.8484 42.3104 24.2224 42.1326 24.5557C41.9623 24.8816 41.7216 25.163 41.4105 25.4001C41.0994 25.6297 40.7365 25.8074 40.3217 25.9333C39.9069 26.0518 39.4551 26.1111 38.9663 26.1111ZM43.0365 26C42.9773 26 42.9217 25.9778 42.8699 25.9333C42.8254 25.8815 42.8032 25.8259 42.8032 25.7667C42.8032 25.7297 42.8069 25.6963 42.8143 25.6667L45.4252 18.5341C45.4474 18.4526 45.4918 18.3822 45.5585 18.323C45.6326 18.2563 45.7325 18.223 45.8585 18.223H47.5027C47.6287 18.223 47.7249 18.2563 47.7916 18.323C47.8657 18.3822 47.9138 18.4526 47.936 18.5341L50.5358 25.6667C50.5506 25.6963 50.558 25.7297 50.558 25.7667C50.558 25.8259 50.5321 25.8815 50.4802 25.9333C50.4358 25.9778 50.3802 26 50.3136 26H48.947C48.8359 26 48.7508 25.9741 48.6915 25.9222C48.6397 25.863 48.6063 25.8111 48.5915 25.7667L48.1582 24.6335H45.1919L44.7697 25.7667C44.7549 25.8111 44.7215 25.863 44.6697 25.9222C44.6178 25.9741 44.529 26 44.4031 26H43.0365ZM45.6474 23.0336H47.7138L46.6695 20.1006L45.6474 23.0336ZM51.7114 26C51.63 26 51.5633 25.9741 51.5115 25.9222C51.4596 25.8704 51.4337 25.8037 51.4337 25.7223V18.5008C51.4337 18.4193 51.4596 18.3526 51.5115 18.3008C51.5633 18.2489 51.63 18.223 51.7114 18.223H54.7334C55.6888 18.223 56.4406 18.4452 56.9887 18.8896C57.5442 19.3266 57.8219 19.9488 57.8219 20.7561C57.8219 21.282 57.6923 21.7264 57.4331 22.0893C57.1813 22.4522 56.848 22.7263 56.4332 22.9114L57.9664 25.6445C57.9886 25.6889 57.9997 25.7297 57.9997 25.7667C57.9997 25.8259 57.9738 25.8815 57.9219 25.9333C57.8775 25.9778 57.8219 26 57.7553 26H56.2888C56.148 26 56.0443 25.9667 55.9777 25.9C55.911 25.8259 55.8629 25.7593 55.8332 25.7L54.5667 23.2558H53.4224V25.7223C53.4224 25.8037 53.3965 25.8704 53.3446 25.9222C53.2928 25.9741 53.2261 26 53.1446 26H51.7114ZM53.4224 21.6893H54.7111C55.0592 21.6893 55.3185 21.6041 55.4888 21.4338C55.6666 21.2634 55.7555 21.0301 55.7555 20.7339C55.7555 20.445 55.6703 20.2117 55.4999 20.0339C55.337 19.8562 55.0741 19.7673 54.7111 19.7673H53.4224V21.6893Z" fill="white"/>
<g clip-path="url(#clip0_123_257)">
<path d="M16.6629 0C7.46047 0 0 7.14604 0 15.9606C0 24.7751 7.46047 31.9212 16.6629 31.9212C25.8652 31.9212 33.3257 24.7751 33.3257 15.9606C33.3257 7.14604 25.8652 0 16.6629 0ZM32.2422 15.9606C32.2422 24.2018 25.2676 30.8833 16.6629 30.8833C8.05809 30.8833 1.08356 24.2018 1.08356 15.9606C1.08356 7.71941 8.05907 1.03789 16.6629 1.03789C25.2666 1.03789 32.2422 7.71941 32.2422 15.9606Z" fill="white"/>
<path d="M24.7389 9.18898C24.9652 9.4217 25.2914 9.79707 25.4746 10.0251L28.8488 7.97373C28.6802 7.76258 28.4118 7.44165 28.211 7.21549L26.0742 8.56868L25.9283 8.6888L26.037 8.53678L26.9805 6.73314L26.3133 6.09408L24.4293 6.99777L24.2706 7.10194L24.397 6.96212L25.8107 4.91637C25.5618 4.71367 25.3228 4.52786 25.0181 4.30264L22.8765 7.53173C23.1478 7.73162 23.5054 8.02534 23.7337 8.22522L25.7499 7.22299L25.8793 7.13197L25.7842 7.25584L24.7389 9.18898Z" fill="white"/>
<path d="M17.0825 5.09654L18.0044 3.11836L18.0632 2.94287L18.0465 3.12586L18.1435 5.76938C18.4668 5.79847 18.8009 5.84164 19.1301 5.89419L18.9802 1.97912C18.5197 1.93032 18.0612 1.8956 17.6027 1.87683L16.6945 4.03613L16.6622 4.1966L16.6299 4.03613L15.7227 1.87683C15.2642 1.8956 14.8057 1.93032 14.3452 1.97912L14.1953 5.89419C14.5245 5.84164 14.8586 5.79941 15.1819 5.76938L15.2789 3.12586L15.2622 2.94287L15.321 3.11836L16.2429 5.09654H17.0825Z" fill="white"/>
<path d="M9.62583 8.21677C10.1588 7.67906 10.4605 7.05783 9.92758 6.46475C9.63759 6.14287 9.15067 6.07249 8.74703 6.23109L8.70686 6.2461L8.7196 6.21232C8.77936 6.05936 8.81757 5.57138 8.38356 5.23449C8.17194 5.07026 7.90644 5.00927 7.638 5.03554C7.13737 5.08434 6.75235 5.41185 5.70406 6.53138C5.38762 6.86921 4.92716 7.40223 4.65088 7.74757L7.53024 10.3639C8.48447 9.35226 8.87341 8.97595 9.62583 8.21677ZM5.86865 7.57677C6.44864 6.89736 7.06488 6.28082 7.34409 6.03683C7.43227 5.95988 7.52828 5.88293 7.64486 5.8529C7.83395 5.80317 8.02891 5.93173 8.07299 6.11754C8.11708 6.30428 7.99462 6.48164 7.85844 6.62804C7.55179 6.9593 6.42709 8.08633 6.42709 8.08633L5.86865 7.57677ZM6.9963 8.60153C6.9963 8.60153 8.09161 7.49232 8.4492 7.1376C8.59126 6.99683 8.68237 6.91144 8.78034 6.86545C8.90672 6.80633 9.04486 6.79414 9.16831 6.87296C9.28979 6.95085 9.34563 7.08504 9.31526 7.2183C9.27901 7.37689 9.14381 7.52798 9.03213 7.6434C8.88125 7.79824 7.58216 9.12985 7.5802 9.13173L6.9963 8.60153Z" fill="white"/>
<path d="M26.5444 15.9606H16.6631V6.49571C22.124 6.49571 26.5444 10.7298 26.5444 15.9606Z" fill="white"/>
<path d="M16.6631 15.9606V25.4255C11.2022 25.4255 6.78174 21.1913 6.78174 15.9606H16.6631Z" fill="white"/>
<path d="M16.6631 6.49571V15.9606H6.78174C6.78174 10.7298 11.2022 6.49571 16.6631 6.49571Z" fill="#0066B1"/>
<path d="M26.5444 15.9606C26.5444 21.1913 22.124 25.4255 16.6631 25.4255V15.9606H26.5444Z" fill="#0066B1"/>
</g>
<defs>
<clipPath id="clip0_123_257">
<rect width="33.408" height="32" fill="white"/>
</clipPath>
</defs>
</svg>
